<mxfile modified="2020-12-10T09:59:16.526Z" host="app.diagrams.net" agent="5.0 (Macintosh; Intel Mac OS X 10_15_7) AppleWebKit/537.36 (KHTML, like Gecko) Chrome/86.0.4240.198 Safari/537.36" etag="6AQXlDL9wsVkxwENKNDa" version="14.0.0" type="github">
  <diagram id="Ht1M8jgEwFfnCIfOTk4-" name="Page-1">
    <mxGraphModel dx="1186" dy="661" grid="1" gridSize="10" guides="1" tooltips="1" connect="1" arrows="1" fold="1" page="1" pageScale="1" pageWidth="1169" pageHeight="827" math="0" shadow="0">
      <root>
        <mxCell id="0" />
        <mxCell id="1" parent="0" />
        <mxCell id="-QjtrjUzRDEMRZ5MF8oH-47" value="Jenkins + Docker + EC2&amp;nbsp;" style="text;html=1;resizable=0;points=[];autosize=1;align=left;verticalAlign=top;spacingTop=-4;fontSize=30;fontStyle=1" parent="1" vertex="1">
          <mxGeometry x="56.5" y="64.5" width="360" height="40" as="geometry" />
        </mxCell>
        <mxCell id="-QjtrjUzRDEMRZ5MF8oH-48" value="Theis &amp;amp; Benjamin" style="text;html=1;resizable=0;points=[];autosize=1;align=left;verticalAlign=top;spacingTop=-4;fontSize=16;" parent="1" vertex="1">
          <mxGeometry x="56.5" y="114.5" width="140" height="20" as="geometry" />
        </mxCell>
        <mxCell id="SCVMTBWpLvtzJIhz15lM-1" value="" style="line;strokeWidth=2;html=1;fontSize=14;" parent="1" vertex="1">
          <mxGeometry x="52.5" y="139.5" width="1060" height="10" as="geometry" />
        </mxCell>
        <mxCell id="PJEIytIsIEoIStejatP--1" value="" style="shape=image;html=1;verticalAlign=top;verticalLabelPosition=bottom;labelBackgroundColor=#ffffff;imageAspect=0;aspect=fixed;image=https://cdn4.iconfinder.com/data/icons/logos-brands-5/24/jenkins-128.png" vertex="1" parent="1">
          <mxGeometry x="250" y="470" width="80" height="80" as="geometry" />
        </mxCell>
        <mxCell id="PJEIytIsIEoIStejatP--2" value="" style="outlineConnect=0;dashed=0;verticalLabelPosition=bottom;verticalAlign=top;align=center;html=1;shape=mxgraph.aws3.ec2;fillColor=#F58534;gradientColor=none;" vertex="1" parent="1">
          <mxGeometry x="70" y="470" width="76.5" height="93" as="geometry" />
        </mxCell>
        <mxCell id="PJEIytIsIEoIStejatP--5" value="" style="edgeStyle=orthogonalEdgeStyle;html=1;endArrow=block;elbow=vertical;startArrow=none;endFill=1;strokeColor=#545B64;rounded=0;exitX=1;exitY=0.5;exitDx=0;exitDy=0;exitPerimeter=0;" edge="1" parent="1" source="PJEIytIsIEoIStejatP--2">
          <mxGeometry width="100" relative="1" as="geometry">
            <mxPoint x="190" y="440" as="sourcePoint" />
            <mxPoint x="240" y="517" as="targetPoint" />
            <Array as="points">
              <mxPoint x="220" y="517" />
              <mxPoint x="220" y="517" />
            </Array>
          </mxGeometry>
        </mxCell>
        <mxCell id="PJEIytIsIEoIStejatP--6" value="EC2" style="text;html=1;align=center;verticalAlign=middle;resizable=0;points=[];autosize=1;" vertex="1" parent="1">
          <mxGeometry x="88.25" y="570" width="40" height="20" as="geometry" />
        </mxCell>
        <mxCell id="PJEIytIsIEoIStejatP--7" value="Jenkins" style="text;html=1;align=center;verticalAlign=middle;resizable=0;points=[];autosize=1;" vertex="1" parent="1">
          <mxGeometry x="260" y="560" width="60" height="20" as="geometry" />
        </mxCell>
        <mxCell id="PJEIytIsIEoIStejatP--9" value="" style="aspect=fixed;perimeter=ellipsePerimeter;html=1;align=center;shadow=0;dashed=0;spacingTop=3;image;image=img/lib/active_directory/user_accounts.svg;" vertex="1" parent="1">
          <mxGeometry x="270" y="200" width="50" height="48.5" as="geometry" />
        </mxCell>
        <mxCell id="PJEIytIsIEoIStejatP--10" value="System User" style="text;html=1;align=center;verticalAlign=middle;resizable=0;points=[];autosize=1;" vertex="1" parent="1">
          <mxGeometry x="255" y="180" width="80" height="20" as="geometry" />
        </mxCell>
        <mxCell id="PJEIytIsIEoIStejatP--11" value="" style="edgeStyle=orthogonalEdgeStyle;html=1;endArrow=none;elbow=vertical;startArrow=block;startFill=1;strokeColor=#545B64;rounded=0;" edge="1" parent="1">
          <mxGeometry width="100" relative="1" as="geometry">
            <mxPoint x="294.5" y="308.5" as="sourcePoint" />
            <mxPoint x="294.5" y="248.5" as="targetPoint" />
          </mxGeometry>
        </mxCell>
        <mxCell id="PJEIytIsIEoIStejatP--12" value="" style="shape=image;html=1;verticalAlign=top;verticalLabelPosition=bottom;labelBackgroundColor=#ffffff;imageAspect=0;aspect=fixed;image=https://cdn4.iconfinder.com/data/icons/socialcones/508/Github-128.png" vertex="1" parent="1">
          <mxGeometry x="260" y="310" width="70" height="70" as="geometry" />
        </mxCell>
        <mxCell id="PJEIytIsIEoIStejatP--13" value="Git Push" style="text;html=1;align=center;verticalAlign=middle;resizable=0;points=[];autosize=1;" vertex="1" parent="1">
          <mxGeometry x="265" y="380" width="60" height="20" as="geometry" />
        </mxCell>
        <mxCell id="PJEIytIsIEoIStejatP--14" value="" style="edgeStyle=orthogonalEdgeStyle;html=1;endArrow=none;elbow=vertical;startArrow=block;startFill=1;strokeColor=#545B64;rounded=0;exitX=0.5;exitY=0;exitDx=0;exitDy=0;" edge="1" parent="1" source="PJEIytIsIEoIStejatP--1">
          <mxGeometry width="100" relative="1" as="geometry">
            <mxPoint x="300" y="460" as="sourcePoint" />
            <mxPoint x="290" y="410" as="targetPoint" />
          </mxGeometry>
        </mxCell>
      </root>
    </mxGraphModel>
  </diagram>
</mxfile>
